<svg width="320" height="220" viewBox="0 0 320 220" fill="none" xmlns="http://www.w3.org/2000/svg">
  <rect x="58" y="44" width="204" height="132" rx="28" fill="#F0FDF4"/>
  <circle cx="126" cy="94" r="24" fill="#16A34A"/>
  <circle cx="194" cy="94" r="24" fill="#22C55E"/>
  <path d="M88 154C94 130 112 120 126 120C140 120 158 130 164 154" fill="white" stroke="#16A34A" stroke-width="6"/>
  <path d="M156 154C162 130 180 120 194 120C208 120 226 130 232 154" fill="white" stroke="#22C55E" stroke-width="6"/>
  <path d="M104 72C124 52 151 52 160 72C169 52 196 52 216 72" stroke="#BBF7D0" stroke-width="8" stroke-linecap="round"/>
  <rect x="134" y="35" width="52" height="24" rx="12" fill="#F59E0B"/>
  <path d="M146 47H174" stroke="white" stroke-width="5" stroke-linecap="round"/>
</svg>
